# xmcd
#
# Track frame offsets:
#	150
#	12552
#	34952
#	49653
#	63352
#	89548
#	100951
#	127019
#	143368
#	167598
#	200215
#
# Disc length: 3095 seconds
#
# Revision: 1
# Processed by: cddbd v1.5.2PL0 Copyright (c) Steve Scherf et al.
# Submitted via: audiograbber 1.83.01
#
DISCID=9b0c150b
DTITLE=Gary Moore  - Close as you get
DYEAR=2007
DGENRE=Blues-Rock
TTITLE0=If the Devil Made Whisky
TTITLE1=Trouble at Home
TTITLE2=Thirty Days
TTITLE3=Hard Times
TTITLE4=Have You Heard
TTITLE5=Eyesight to the Blind
TTITLE6=Evenin'
TTITLE7=Nowhere Fast
TTITLE8=Checkin' Up on My Baby
TTITLE9=I Had a Dream
TTITLE10=Sundown
EXTD=
EXTT0=
EXTT1=
EXTT2=
EXTT3=
EXTT4=
EXTT5=
EXTT6=
EXTT7=
EXTT8=
EXTT9=
EXTT10=
PLAYORDER=
